<svg width="30" height="37" viewBox="0 0 30 37" fill="none" xmlns="http://www.w3.org/2000/svg">
<path d="M20.2609 5.97129C21.6156 4.5211 22.5318 2.50771 22.281 0.5C20.3295 0.569644 17.9643 1.64555 16.5635 3.09561C15.3078 4.37934 14.2084 6.43101 14.5018 8.39933C16.6794 8.54665 18.9041 7.41913 20.2609 5.97129ZM24.417 19.8366C24.3754 15.3355 27.9806 13.1737 28.1403 13.0692C26.1134 10.0126 22.9568 9.5944 21.8326 9.54723C19.1448 9.26507 16.5918 11.175 15.2272 11.175C13.8681 11.175 11.7659 9.58428 9.53669 9.627C6.60607 9.67528 3.90574 11.3818 2.40061 14.0865C-0.643744 19.5275 1.62032 27.5876 4.58687 32.001C6.03706 34.1616 7.76372 36.5853 10.0311 36.4977C12.2199 36.41 13.045 35.0419 15.6857 35.0419C18.3274 35.0419 19.0671 36.4977 21.3783 36.4538C23.7301 36.41 25.2184 34.2516 26.6563 32.0842C28.3199 29.5785 29.0058 27.1526 29.045 27.0301C28.9945 27.0008 24.4653 25.2191 24.417 19.8366Z" fill="#CCD0D2"/>
</svg>
