<svg width="64" height="65" viewBox="0 0 64 65" fill="none" xmlns="http://www.w3.org/2000/svg">
<g clip-path="url(#clip0_1_901)">
<path d="M32 0.5H18.1333C17.5443 0.5 17.0667 0.977604 17.0667 1.56667V9.03333H1.06667C0.477604 9.03333 0 9.51094 0 10.1V63.4333C0 64.0224 0.477604 64.5 1.06667 64.5H32C32.5891 64.5 33.0667 64.0224 33.0667 63.4333V1.56667C33.0667 0.977604 32.5891 0.5 32 0.5ZM30.9333 55.9667H19.2V53.8333H30.9333V55.9667ZM2.13333 16.5H17.0667V48.5H2.13333V16.5ZM30.9333 12.2333H19.2V9.03333H30.9333V12.2333ZM2.13333 50.6333H17.0667V53.8333H2.13333V50.6333ZM19.2 51.7V14.3667H30.9333V51.7H19.2ZM30.9333 2.63333V6.9H19.2V2.63333H30.9333ZM17.0667 11.1667V14.3667H2.13333V11.1667H17.0667ZM2.13333 55.9667H17.0667V62.3667H2.13333V55.9667ZM19.2 62.3667V58.1H30.9333V62.3667H19.2Z" fill="#AEAEAE"/>
<path d="M63.9657 58.8976L51.1657 9.83093C51.0943 9.55593 50.9162 9.32103 50.6704 9.1778C50.4251 9.0351 50.1329 8.99603 49.8584 9.06947L33.8584 13.3361C33.2917 13.4872 32.9532 14.0674 33.1011 14.6351L45.9011 63.7018C45.9725 63.9768 46.1511 64.2117 46.3969 64.3544C46.6423 64.4966 46.9344 64.5351 47.2084 64.4611L63.2084 60.1945C63.774 60.0434 64.112 59.4643 63.9657 58.8976ZM37.1329 21.6387L51.0719 17.9226L51.5735 19.8424L37.6355 23.5643L37.1329 21.6387ZM52.112 21.9122L58.2985 45.6429L44.3646 49.3606L38.1782 25.6283L52.112 21.9122ZM58.8417 47.708L59.9339 51.894L45.9949 55.6101L44.9068 51.4257L58.8417 47.708ZM49.3719 11.4065L50.5334 15.8596L36.5943 19.5747L35.4339 15.1236L49.3719 11.4065ZM47.6949 62.1262L46.5334 57.6731L60.4725 53.9559L61.6329 58.407L47.6949 62.1262Z" fill="#AEAEAE"/>
<path d="M13.8666 19.6992H5.33327C4.74421 19.6992 4.2666 20.1768 4.2666 20.7659V29.2992C4.2666 29.8883 4.74421 30.3659 5.33327 30.3659H13.8666C14.4557 30.3659 14.9333 29.8883 14.9333 29.2992V20.7659C14.9333 20.1768 14.4557 19.6992 13.8666 19.6992ZM12.7999 28.2326H6.39994V21.8326H12.7999V28.2326Z" fill="#AEAEAE"/>
</g>
<defs>
<clipPath id="clip0_1_901">
<rect width="64" height="64" fill="white" transform="translate(0 0.5)"/>
</clipPath>
</defs>
</svg>
