<svg width="42" height="42" viewBox="0 0 42 42" fill="none" xmlns="http://www.w3.org/2000/svg">
<path d="M21.0001 0H11.9001C11.5135 0 11.2001 0.31343 11.2001 0.700005V5.60004H0.700005C0.31343 5.60004 0 5.91347 0 6.30004V41.3003C0 41.6869 0.31343 42.0003 0.700005 42.0003H21.0001C21.3867 42.0003 21.7002 41.6869 21.7002 41.3003V0.700005C21.7002 0.31343 21.3867 0 21.0001 0ZM20.3001 36.4003H12.6001V35.0002H20.3001V36.4003ZM1.40001 10.5001H11.2001V31.5002H1.40001V10.5001ZM20.3001 7.70005H12.6001V5.60004H20.3001V7.70005ZM1.40001 32.9002H11.2001V35.0002H1.40001V32.9002ZM12.6001 33.6002V9.10006H20.3001V33.6002H12.6001ZM20.3001 1.40001V4.20003H12.6001V1.40001H20.3001ZM11.2001 7.00005V9.10006H1.40001V7.00005H11.2001ZM1.40001 36.4003H11.2001V40.6003H1.40001V36.4003ZM12.6001 40.6003V37.8003H20.3001V40.6003H12.6001Z" fill="#107FE4"/>
<path d="M41.977 38.3238L33.577 6.12361C33.5301 5.94314 33.4132 5.78899 33.2519 5.69499C33.0909 5.60134 32.8992 5.5757 32.719 5.6239L22.219 8.42392C21.8471 8.52304 21.6249 8.9038 21.722 9.27637L30.122 41.4766C30.1689 41.6571 30.2861 41.8112 30.4474 41.9049C30.6084 41.9982 30.8002 42.0235 30.98 41.9749L41.48 39.1749C41.8512 39.0758 42.0731 38.6957 41.977 38.3238ZM24.3679 13.8725L33.5154 11.4338L33.8446 12.6937L24.6977 15.1362L24.3679 13.8725ZM34.198 14.052L38.2579 29.6254L29.1137 32.0651L25.0539 16.4907L34.198 14.052ZM38.6144 30.9806L39.3311 33.7277L30.1836 36.1664L29.4696 33.4204L38.6144 30.9806ZM32.3998 7.15755L33.162 10.0799L24.0144 12.518L23.2529 9.59697L32.3998 7.15755ZM31.2992 40.4426L30.537 37.5203L39.6846 35.0808L40.4461 38.0019L31.2992 40.4426Z" fill="#107FE4"/>
<path d="M9.10034 12.6001H3.5003C3.11372 12.6001 2.80029 12.9135 2.80029 13.3001V18.9001C2.80029 19.2867 3.11372 19.6001 3.5003 19.6001H9.10034C9.48691 19.6001 9.80034 19.2867 9.80034 18.9001V13.3001C9.80034 12.9135 9.48691 12.6001 9.10034 12.6001ZM8.40033 18.2001H4.2003V14.0001H8.40033V18.2001Z" fill="#107FE4"/>
</svg>
