<svg width="48" height="48" viewBox="0 0 48 48" fill="none" xmlns="http://www.w3.org/2000/svg">
<path d="M24.0001 3H14.9001C14.5135 3 14.2001 3.31343 14.2001 3.7V8.60004H3.7C3.31343 8.60004 3 8.91347 3 9.30004V44.3003C3 44.6869 3.31343 45.0003 3.7 45.0003H24.0001C24.3867 45.0003 24.7002 44.6869 24.7002 44.3003V3.7C24.7002 3.31343 24.3867 3 24.0001 3ZM23.3001 39.4003H15.6001V38.0002H23.3001V39.4003ZM4.40001 13.5001H14.2001V34.5002H4.40001V13.5001ZM23.3001 10.7001H15.6001V8.60004H23.3001V10.7001ZM4.40001 35.9002H14.2001V38.0002H4.40001V35.9002ZM15.6001 36.6002V12.1001H23.3001V36.6002H15.6001ZM23.3001 4.40001V7.20003H15.6001V4.40001H23.3001ZM14.2001 10V12.1001H4.40001V10H14.2001ZM4.40001 39.4003H14.2001V43.6003H4.40001V39.4003ZM15.6001 43.6003V40.8003H23.3001V43.6003H15.6001Z" fill="#107FE4"/>
<path d="M44.977 41.3238L36.577 9.12361C36.5301 8.94314 36.4132 8.78899 36.2519 8.69499C36.0909 8.60134 35.8992 8.5757 35.719 8.6239L25.219 11.4239C24.8471 11.523 24.6249 11.9038 24.722 12.2764L33.122 44.4766C33.1689 44.6571 33.2861 44.8112 33.4474 44.9049C33.6084 44.9982 33.8002 45.0235 33.98 44.9749L44.48 42.1749C44.8512 42.0758 45.0731 41.6957 44.977 41.3238ZM27.3679 16.8725L36.5154 14.4338L36.8446 15.6937L27.6977 18.1362L27.3679 16.8725ZM37.198 17.052L41.2579 32.6254L32.1137 35.0651L28.0539 19.4907L37.198 17.052ZM41.6144 33.9806L42.3311 36.7277L33.1836 39.1664L32.4696 36.4204L41.6144 33.9806ZM35.3998 10.1576L36.162 13.0799L27.0144 15.518L26.2529 12.597L35.3998 10.1576ZM34.2992 43.4426L33.537 40.5203L42.6846 38.0808L43.4461 41.0019L34.2992 43.4426Z" fill="#107FE4"/>
<path d="M12.1003 15.6001H6.5003C6.11372 15.6001 5.80029 15.9135 5.80029 16.3001V21.9001C5.80029 22.2867 6.11372 22.6001 6.5003 22.6001H12.1003C12.4869 22.6001 12.8003 22.2867 12.8003 21.9001V16.3001C12.8003 15.9135 12.4869 15.6001 12.1003 15.6001ZM11.4003 21.2001H7.2003V17.0001H11.4003V21.2001Z" fill="#107FE4"/>
</svg>
