<svg width="42" height="35" viewBox="0 0 42 35" fill="none" xmlns="http://www.w3.org/2000/svg">
<path d="M41.2538 4.51492C40.7096 3.87163 39.9475 3.4787 39.1077 3.40856L9.5308 0.93893C8.69097 0.868794 7.87443 1.1299 7.23106 1.67401C6.59031 2.21599 6.19795 2.97421 6.1256 3.80986L5.53055 9.39258H3.15451C1.41512 9.39258 0 10.8077 0 12.5471V31.0617C0 32.8011 1.41512 34.2162 3.15451 34.2162H32.8345C34.574 34.2162 35.9891 32.8011 35.9891 31.0617V28.0583L37.0423 28.1462C37.1311 28.1536 37.2195 28.1573 37.3071 28.1573C38.9287 28.1573 40.3111 26.9097 40.4484 25.2651L41.989 6.81475C42.0591 5.97499 41.798 5.15829 41.2538 4.51492ZM3.15451 11.0332H32.8345C33.6692 11.0332 34.3485 11.7123 34.3485 12.5471V14.2341H1.64063V12.5471C1.64063 11.7123 2.31976 11.0332 3.15451 11.0332ZM1.64063 15.8748H34.3485V19.2782H1.64063V15.8748ZM32.8345 32.5756H3.15451C2.31976 32.5756 1.64063 31.8965 1.64063 31.0617V20.9188H34.3485V31.0617C34.3485 31.8965 33.6692 32.5756 32.8345 32.5756ZM40.354 6.67817L38.8134 25.1286C38.7439 25.9604 38.0105 26.581 37.1788 26.5113L35.9891 26.4119V12.5471C35.9891 10.8077 34.574 9.39258 32.8345 9.39258H7.18052L7.75794 3.97524C7.7586 3.969 7.75917 3.96285 7.75967 3.95653C7.82915 3.12465 8.56218 2.50417 9.3943 2.5739L38.9713 5.04353C39.3743 5.07716 39.7401 5.26575 40.0012 5.57452C40.2623 5.88328 40.3877 6.27515 40.354 6.67817Z" fill="#107FE4"/>
</svg>
