<svg width="48" height="28" viewBox="0 0 48 28" fill="none" xmlns="http://www.w3.org/2000/svg">
<path d="M13 24H9C8.448 24 8 23.552 8 23C8 22.448 8.448 22 9 22H13C13.552 22 14 22.448 14 23C14 23.552 13.552 24 13 24Z" fill="#107FE4"/>
<path d="M45.4991 24H42.9991C42.4471 24 41.9991 23.552 41.9991 23C41.9991 22.448 42.4471 22 42.9991 22H44.6691L46.0171 14.816C45.9991 11.14 42.8591 8 38.9991 8H32.4331L29.2511 22H34.9991C35.5511 22 35.9991 22.448 35.9991 23C35.9991 23.552 35.5511 24 34.9991 24H27.9991C27.6951 24 27.4071 23.862 27.2171 23.624C27.0271 23.388 26.9551 23.076 27.0231 22.78L30.6591 6.78C30.7631 6.322 31.1671 6 31.6351 6H38.9991C43.9611 6 47.9991 10.038 47.9991 15L46.4811 23.184C46.3931 23.658 45.9811 24 45.4991 24Z" fill="#107FE4"/>
<path d="M39 28C36.244 28 34 25.758 34 23C34 20.242 36.244 18 39 18C41.756 18 44 20.242 44 23C44 25.758 41.756 28 39 28ZM39 20C37.346 20 36 21.346 36 23C36 24.654 37.346 26 39 26C40.654 26 42 24.654 42 23C42 21.346 40.654 20 39 20Z" fill="#107FE4"/>
<path d="M17 28C14.244 28 12 25.758 12 23C12 20.242 14.244 18 17 18C19.756 18 22 20.242 22 23C22 25.758 19.756 28 17 28ZM17 20C15.346 20 14 21.346 14 23C14 24.654 15.346 26 17 26C18.654 26 20 24.654 20 23C20 21.346 18.654 20 17 20Z" fill="#107FE4"/>
<path d="M13 6H5C4.448 6 4 5.552 4 5C4 4.448 4.448 4 5 4H13C13.552 4 14 4.448 14 5C14 5.552 13.552 6 13 6Z" fill="#107FE4"/>
<path d="M13 12H3C2.448 12 2 11.552 2 11C2 10.448 2.448 10 3 10H13C13.552 10 14 10.448 14 11C14 11.552 13.552 12 13 12Z" fill="#107FE4"/>
<path d="M13 18H1C0.448 18 0 17.552 0 17C0 16.448 0.448 16 1 16H13C13.552 16 14 16.448 14 17C14 17.552 13.552 18 13 18Z" fill="#107FE4"/>
<path d="M28 24H21C20.448 24 20 23.552 20 23C20 22.448 20.448 22 21 22H27.202L31.746 2H9C8.448 2 8 1.552 8 1C8 0.448 8.448 0 9 0H33C33.304 0 33.592 0.138 33.782 0.376C33.972 0.612 34.044 0.924 33.976 1.22L28.976 23.22C28.872 23.678 28.466 24 28 24Z" fill="#107FE4"/>
</svg>
