<svg width="48" height="48" viewBox="0 0 48 48" fill="none" xmlns="http://www.w3.org/2000/svg">
<path d="M13 36H9C8.448 36 8 35.552 8 35C8 34.448 8.448 34 9 34H13C13.552 34 14 34.448 14 35C14 35.552 13.552 36 13 36Z" fill="#107FE4"/>
<path d="M45.4991 36H42.9991C42.4471 36 41.9991 35.552 41.9991 35C41.9991 34.448 42.4471 34 42.9991 34H44.6691L46.0171 26.816C45.9991 23.14 42.8591 20 38.9991 20H32.4331L29.2511 34H34.9991C35.5511 34 35.9991 34.448 35.9991 35C35.9991 35.552 35.5511 36 34.9991 36H27.9991C27.6951 36 27.4071 35.862 27.2171 35.624C27.0271 35.388 26.9551 35.076 27.0231 34.78L30.6591 18.78C30.7631 18.322 31.1671 18 31.6351 18H38.9991C43.9611 18 47.9991 22.038 47.9991 27L46.4811 35.184C46.3931 35.658 45.9811 36 45.4991 36Z" fill="#107FE4"/>
<path d="M39 40C36.244 40 34 37.758 34 35C34 32.242 36.244 30 39 30C41.756 30 44 32.242 44 35C44 37.758 41.756 40 39 40ZM39 32C37.346 32 36 33.346 36 35C36 36.654 37.346 38 39 38C40.654 38 42 36.654 42 35C42 33.346 40.654 32 39 32Z" fill="#107FE4"/>
<path d="M17 40C14.244 40 12 37.758 12 35C12 32.242 14.244 30 17 30C19.756 30 22 32.242 22 35C22 37.758 19.756 40 17 40ZM17 32C15.346 32 14 33.346 14 35C14 36.654 15.346 38 17 38C18.654 38 20 36.654 20 35C20 33.346 18.654 32 17 32Z" fill="#107FE4"/>
<path d="M13 18H5C4.448 18 4 17.552 4 17C4 16.448 4.448 16 5 16H13C13.552 16 14 16.448 14 17C14 17.552 13.552 18 13 18Z" fill="#107FE4"/>
<path d="M13 24H3C2.448 24 2 23.552 2 23C2 22.448 2.448 22 3 22H13C13.552 22 14 22.448 14 23C14 23.552 13.552 24 13 24Z" fill="#107FE4"/>
<path d="M13 30H1C0.448 30 0 29.552 0 29C0 28.448 0.448 28 1 28H13C13.552 28 14 28.448 14 29C14 29.552 13.552 30 13 30Z" fill="#107FE4"/>
<path d="M28 36H21C20.448 36 20 35.552 20 35C20 34.448 20.448 34 21 34H27.202L31.746 14H9C8.448 14 8 13.552 8 13C8 12.448 8.448 12 9 12H33C33.304 12 33.592 12.138 33.782 12.376C33.972 12.612 34.044 12.924 33.976 13.22L28.976 35.22C28.872 35.678 28.466 36 28 36Z" fill="#107FE4"/>
</svg>
