<svg width="28" height="31" viewBox="0 0 28 31" fill="none" xmlns="http://www.w3.org/2000/svg">
<path d="M16.2739 15.503L1.12336 30.092C0.41388 29.6071 -0.00735144 28.8006 9.71606e-05 27.9413V3.06471C-0.00735144 2.20543 0.41388 1.39893 1.12336 0.914062L16.2739 15.503Z" fill="#2196F3"/>
<path d="M21.5749 10.4077L16.2736 15.5036L1.12305 0.91462C1.18013 0.870378 1.23959 0.829218 1.30111 0.791333C2.10183 0.306019 3.102 0.290351 3.91755 0.750237L21.5749 10.4077Z" fill="#4CAF50"/>
<path d="M27.9994 15.5041C28.0093 16.4741 27.4822 17.3701 26.6295 17.8329L21.5748 20.5999L16.2734 15.5041L21.5748 10.4082L26.6295 13.1753C27.4822 13.638 28.0093 14.534 27.9994 15.5041Z" fill="#FFC107"/>
<path d="M21.5749 20.5998L3.91755 30.2573C3.1002 30.71 2.10382 30.6943 1.30111 30.2162C1.23959 30.1783 1.18013 30.1371 1.12305 30.0929L16.2737 15.5039L21.5749 20.5998Z" fill="#F44336"/>
</svg>
