<svg width="48" height="48" viewBox="0 0 48 48" fill="none" xmlns="http://www.w3.org/2000/svg">
<path d="M38.8198 29.3277L38.7444 29.4408L38.8219 29.5526L45.5591 39.2627L38.0105 37.8719L37.8147 37.8358L37.7777 38.0315L36.37 45.4935L30.0276 36.3526L29.9414 36.2284L29.7984 36.2775C27.9809 36.9008 26.0303 37.2405 24 37.2405C21.9701 37.2405 20.0194 36.9009 18.2016 36.2775L18.0586 36.2284L17.9724 36.3526L11.6303 45.4935L10.2223 38.0315L10.1853 37.8358L9.98948 37.8719L2.44089 39.2627L9.17812 29.5526L9.25564 29.4409L9.18025 29.3277C7.34117 26.5669 6.26908 23.2655 6.26908 19.7202C6.26908 10.0619 14.221 2.2 24 2.2C33.779 2.2 41.7313 10.0619 41.7313 19.7202C41.7313 23.2655 40.6592 26.5669 38.8198 29.3277ZM12.744 39.4071L12.8326 39.8765L13.1049 39.4841L15.8488 35.5299L15.9784 35.3432L15.7767 35.2385C13.9151 34.2711 12.2473 32.987 10.8482 31.458L10.6791 31.2732L10.5364 31.479L7.58246 35.7366L7.30587 36.1353L7.78304 36.0473L11.9647 35.2764L12.744 39.4071ZM34.8951 39.4841L35.1674 39.8765L35.256 39.4071L36.0353 35.2764L40.2173 36.047L40.6945 36.1349L40.4179 35.7363L37.464 31.479L37.3212 31.2732L37.1521 31.458C35.7531 32.987 34.0853 34.2711 32.2236 35.2385L32.0219 35.3432L32.1515 35.5299L34.8951 39.4841ZM24 4.39323C15.4516 4.39323 8.49314 11.2666 8.49314 19.7202C8.49314 28.1742 15.4516 35.0476 24 35.0476C32.5487 35.0476 39.5072 28.1742 39.5072 19.7202C39.5072 11.2666 32.5487 4.39323 24 4.39323Z" fill="#107FE4" stroke="#E5F3EF" stroke-width="0.4"/>
<path d="M20.7706 23.5253L20.9126 23.6686L21.0547 23.5253L31.208 13.2841L32.7184 14.8076L20.9126 26.7159L15.2816 21.0358L16.792 19.5123L20.7706 23.5253Z" fill="#107FE4" stroke="#E5F3EF" stroke-width="0.4"/>
</svg>
