<svg width="24" height="24" viewBox="0 0 24 24" fill="none" xmlns="http://www.w3.org/2000/svg">
<path fill-rule="evenodd" clip-rule="evenodd" d="M12.03 2.00002C14.29 2.01002 16.45 2.91002 18.03 4.49002C19.62 6.08002 20.51 8.23002 20.5 10.46V10.51C20.44 13.54 18.74 16.33 16.62 18.51C15.42 19.74 14.09 20.83 12.64 21.75C12.25 22.08 11.68 22.08 11.29 21.75C9.14 20.35 7.24 18.59 5.7 16.54C4.35 14.76 3.58 12.62 3.5 10.39C3.52 5.74002 7.34 1.99002 12.03 2.00002ZM12.0298 13.2597C12.7398 13.2597 13.4198 12.9897 13.9198 12.4997C14.4398 11.9897 14.7308 11.3107 14.7308 10.5997C14.7308 9.11967 13.5198 7.92967 12.0298 7.92967C10.5398 7.92967 9.33984 9.11967 9.33984 10.5997C9.33984 12.0607 10.5198 13.2397 11.9998 13.2597H12.0298Z" fill="white"/>
</svg>
